# xmcd
#
# Track frame offsets:
#	150
#	12262
#	31422
#	43830
#	64595
#	86017
#	108835
#	122702
#	147700
#	165275
#
# Disc length: 2387 seconds
#
# Revision: 0
# Processed by: cddbd v1.5.2PL0 Copyright (c) Steve Scherf et al.
# Submitted via: dBpowerAMP V4.0
#
DISCID=8009510a
DTITLE=Stephan Sharp - How Do I Get Home?
DYEAR=1995
DGENRE=
TTITLE0=Songs Of Love
TTITLE1=How Do I Get Home?
TTITLE2=Colorado Bound
TTITLE3=I Sing
TTITLE4=Mother´s Day
TTITLE5=Final Destination
TTITLE6=Inside Out
TTITLE7=Memories Of Yesterday
TTITLE8=The Lighthouse
TTITLE9=A Family
EXTD=
EXTT0=
EXTT1=
EXTT2=
EXTT3=
EXTT4=
EXTT5=
EXTT6=
EXTT7=
EXTT8=
EXTT9=
PLAYORDER=
